PathFileType	4	(X/Y/Z)	pose_F01_0-97.trc
DataRate	CameraRate	NumFrames	NumMarkers	Units	OrigDataRate	OrigDataStartFrame	OrigNumFrames
60	60	6	21	m	60	36	97
Frame#	Time	CHip			RHip			RKnee			RAnkle			RBigToe			RSmallToe			RHeel			LHip			LKnee			LAnkle			LBigToe			LSmallToe			LHeel			Neck			Nose			RShoulder			RElbow			RWrist			LShoulder			LElbow			LWrist			
		X1	Y1	Z1	X2	Y2	Z2	X3	Y3	Z3	X4	Y4	Z4	X5	Y5	Z5	X6	Y6	Z6	X7	Y7	Z7	X8	Y8	Z8	X9	Y9	Z9	X10	Y10	Z10	X11	Y11	Z11	X12	Y12	Z12	X13	Y13	Z13	X14	Y14	Z14	X15	Y15	Z15	X16	Y16	Z16	X17	Y17	Z17	X18	Y18	Z18	X19	Y19	Z19	X20	Y20	Z20	X21	Y21	Z21	
36	0.6	-0.19796056900714987	1.8321548748499015	-0.4905983450596325	-0.21312903419379184	1.8304813656901304	-0.45108144080428	-0.22793889826156014	1.7160859083217177	-0.493176331334146	-0.1940442683394765	1.6101822948247062	-0.4928169137969167	-0.22831116457255318	1.567060352269296	-0.5141530228023312	-0.20272888373259196	1.584760839352838	-0.5259624142377546				-0.1803500733611709	1.8348131796267375	-0.5327686865685104	-0.18229593662632043	1.725913789870004	-0.5830335161954695	-0.18879001239881144	1.6131113082651343	-0.5294371127403464	-0.17930513598335385	1.5886865424645809	-0.6068080404009095	-0.1739049471251928	1.5966777258999092	-0.6092239252548737	-0.1997655511244029	1.6158359442513026	-0.5113428688576184	-0.19833584096798787	1.967689173417797	-0.5573974703771863	-0.19789463300514487	2.024149473051976	-0.6345559358971912	-0.2235013516971291	1.9740530670445389	-0.4976808799766709	-0.23967273046836343	1.8976056518123148	-0.4386133706663057	-0.24273988075876746	1.8545095497495068	-0.5325545639868615	-0.17129266371654803	1.968510496662948	-0.607616786277521	-0.16800458024280973	1.9056614542548402	-0.5918463327467642	-0.15022149726957673	1.8838012795558456	-0.6667044853753775
37	0.6166666666666667	-0.20132839154251883	1.8313635418977667	-0.5002346931141735	-0.21461640070427287	1.8285756028859752	-0.4543009758252236	-0.22095507743621937	1.717370120073145	-0.4876753455060575	-0.1940442683394765	1.6101822948247062	-0.4928169137969167	-0.2239910112356766	1.5665390178583645	-0.5185194406827194	-0.20272888373259196	1.584760839352838	-0.5259624142377546				-0.1824911874753065	1.8358000405228865	-0.5391790510609484	-0.1783332703857339	1.727786996608127	-0.5874951166601119	-0.18426272435566907	1.613974958009615	-0.5344814776359805	-0.1722310559607288	1.5917096770768164	-0.6146521744964925	-0.16887151181153015	1.599244699703742	-0.6148991363066998	-0.19532965079770478	1.6180548960670933	-0.5158990484752665	-1.6306672764598837	1.8845514690481162	1.0242152406506324	-0.19802013868085505	2.025007318085756	-0.6352223578341203	-1.7240205662954045	1.888080357285417	1.160830848759998	-0.23137133529675014	1.8975411829684548	-0.44451873983484497	-0.22931283936283764	1.8610423868145425	-0.5287467585531185	-1.5165256698801688	1.8798067291662055	0.8666795819406451	-0.16518473373780437	1.917540255170173	-0.5911860282866509	-0.1577063003642428	1.8820743665730102	-0.665787473519004
38	0.6333333333333333	-0.1983204046977682	1.8268425610144166	-0.507562816918502	-0.2136740186629937	1.824716702399109	-0.4592849724676284	-0.21465893411272094	1.7130940593033073	-0.48505032698989803	-0.1940442683394765	1.6101822948247062	-0.4928169137969167	-0.2271219603983938	1.5665895865973594	-0.5108825402602184	-0.20272888373259196	1.584760839352838	-0.5259624142377546				-0.18030213750939245	1.830613515197092	-0.5497104175515437	-0.17682693591803775	1.7235615022342454	-0.5888950199736791	-0.1825790928107302	1.6113473097687978	-0.5356681573344679	-0.1657767291849606	1.5903600650618939	-0.6207259319604745	-0.16494373498736034	1.5967998977642168	-0.6182260308323564	-0.1905355056785917	1.6101885657216835	-0.5188796958181757	-1.629774507269609	1.8841698126790623	1.0236799608838758	-0.1950620740414292	2.025798291314113	-0.6348200028020209	-1.7368586599390001	1.88795885467045	1.1819400155587654	-0.21875580557951937	1.8953147365102885	-0.45159643908435904	-0.2212319309857685	1.856101731261156	-0.5318836995832178	-1.5120935674252705	1.8789386483487802	0.8622806823951704	-0.16649108469960344	1.9049061702269934	-0.6150440408364429	-0.17067907143676211	1.8764737538679557	-0.6552270060697765
39	0.65	-0.19233635448624936	1.8284905809201344	-0.5147778920668032	-0.20605855818269284	1.8253975906169342	-0.46836058751931264	-0.20917795090900232	1.7135193488177412	-0.48688356176736264	-0.1940442683394765	1.6101822948247062	-0.4928169137969167	-0.22410965023740928	1.5684835110587292	-0.5143099513474689	-0.20272888373259196	1.584760839352838	-0.5259624142377546				-0.17812946149777004	1.8305883800331444	-0.5609413112932471	-0.1761164740676344	1.7223264779771121	-0.589348832273931	-0.18132536288805962	1.6103188735864797	-0.5412831472443184	-0.16707757083285443	1.5895467210137801	-0.6236890904094093	-0.1662383994290647	1.595987597542452	-0.6211471061630708	-0.18914415429286724	1.6079484830270465	-0.5249960660813938	-0.1871219002584572	1.96959255701734	-0.5644969933496368	-0.19028482034417712	2.0220800107935806	-0.6365931679926823	-0.2103983238323944	1.9697202550395034	-0.5055602490056947	-0.21076495893365352	1.8933233184748897	-0.468988127565434	-0.7040639858292129	1.8595129798941605	-0.0019265708541584825	-1.4748868894673957	1.8808263516723536	0.8048654009785516	-0.17112226392254748	1.9030742456639895	-0.6403775009309534	-1.2447804577326387	1.860806724763568	0.45358972828644634
40	0.6666666666666666	-0.19198044907583414	1.8308036051348013	-0.5239199490054448	-0.2029251000981143	1.828009387544137	-0.4764943723817586	-0.20197325624682877	1.7175371171979652	-0.5084178830202678	-0.1940442683394765	1.6101822948247062	-0.4928169137969167	-0.2210973400764248	1.570377435520099	-0.5177373624347196	-0.20272888373259196	1.584760839352838	-0.5259624142377546				-0.17567515388985303	1.832354142443309	-0.5724783266222411	-0.17146993209177905	1.7216824622034215	-0.5943852189032801	-0.18109591527623473	1.609726869405012	-0.5413457320390929	-0.16500683814566927	1.58942123441024	-0.6262219827162486	-0.16523378526725024	1.5973717143412516	-0.6265262356399798	-0.1888831234040498	1.6066201509355664	-0.5252549755958057	-0.1821042235231341	1.9682891458593348	-0.5750093693487902	-0.1840541050410863	2.01967852775134	-0.6435117591973543	-0.20164641807716815	1.9671231052268787	-0.502228749540548	-0.207011282975786	1.8933887725039997	-0.47363483267019413	-1.1868960406726574	1.8629242285271648	0.5280305578749008	-0.15827686019278583	1.9691052839224426	-0.6385699362373838	-0.16699003877384405	1.9039470882898448	-0.6543330482960839	-0.7557621702849406	1.8437500457168354	-0.2815079522278983
41	0.6833333333333333	-0.1866072729438815	1.830301705933613	-0.5303280434312079	-0.20147140058873161	1.8261920502774833	-0.47828427083679587	-0.20207065985033637	1.7223761942263114	-0.5177928692062772	-0.1940442683394765	1.6101822948247062	-0.4928169137969167	-0.21808502991544026	1.5722713599814688	-0.5211647735219701	-0.20272888373259196	1.584760839352838	-0.5259624142377546				-0.17018849542964368	1.8333588762723365	-0.5792553835458433	-0.1718263655907062	1.7220552743776851	-0.5941985290342224	-0.18079937764756307	1.6107246853699764	-0.5418914190357199	-0.16501003118328147	1.5900772886933205	-0.626106030935878	-0.16294323105536457	1.5967795876633946	-0.6287797493542324	-0.1900889394019446	1.6108647729317604	-0.5283573840099877	-0.17914337934114646	1.9671344501615762	-0.5740892064753463	-0.1769973816656061	2.0179545490334907	-0.6472938083930214	-0.20068813359951085	1.9670347532602963	-0.49943506545618643	-0.20790614482821032	1.8921267125709096	-0.47668802187919046	-1.6697280955161018	1.8663354771601692	1.05798768660396	-0.15318797691920508	1.9692685800317473	-0.6398710292396594	-0.1660440062633847	1.9030349752235378	-0.6598452130675614	-0.2667438828372427	1.8266933666701028	-1.016605632742243
